<svg width="32" height="32" viewBox="0 0 32 32" fill="none" xmlns="http://www.w3.org/2000/svg">
<path d="M7.6123 5.77454V22.3077C7.61236 23.5132 8.21062 24.6347 9.17285 25.2374L12.959 27.6085H6.73047C5.22508 27.6085 4.00001 26.2737 4 24.6329V8.75013C4.00003 7.1091 5.22481 5.77454 6.73047 5.77454H7.6123ZM10.2832 3.32923C10.9768 2.89173 11.8057 2.89009 12.501 3.32533L16.4434 5.72572V27.5734H16.3711L10.7432 24.1779C9.77998 23.5757 9.18262 22.4529 9.18262 21.2482V5.40345C9.18262 4.53912 9.59464 3.76381 10.2832 3.32923ZM26.4443 5.73841C27.9497 5.73841 29.1748 7.07391 29.1748 8.71497V24.5968C29.1748 26.2376 27.95 27.5734 26.4443 27.5734H18.2852V5.73841H26.4443Z" fill="#2E7AE6"/>
</svg>
