<svg width="32" height="32" viewBox="0 0 32 32" fill="none" xmlns="http://www.w3.org/2000/svg">
<path d="M28.8838 6.51695C28.8838 6.12121 28.7964 5.32608 28.0954 5.06958C27.3962 4.81125 26.9052 5.30959 26.3474 5.949C25.4798 6.96688 24.3938 7.78243 23.1677 8.33686C21.9415 8.89129 20.6058 9.17079 19.2568 9.1552H17.9793C14.4796 9.0526 9.22815 8.8987 6.21937 14.8457C5.40354 16.3753 5.0854 18.1152 5.30818 19.8291C8.10034 18.0307 11.203 16.7509 14.4628 16.0531C14.6928 15.9917 14.9332 15.9773 15.169 16.0106C15.4049 16.044 15.6314 16.1244 15.8346 16.2471C16.0378 16.3698 16.2134 16.532 16.3507 16.7239C16.488 16.9158 16.584 17.1333 16.633 17.3631C16.6037 17.2636 16.5558 17.1703 16.4916 17.0883C16.1507 16.919 15.7593 16.876 15.3889 16.9673C11.8882 17.7456 8.57639 19.1928 5.64104 21.227C5.15383 21.5806 4.69266 21.9654 4.25752 22.3812C3.87073 22.7477 3.51369 23.1471 3.19013 23.5721C2.90352 23.9478 2.65735 24.3518 2.45559 24.7776V24.8638C2.25476 25.2668 2.10228 25.6882 2 26.1224C2.17876 26.4349 2.45202 26.6847 2.78169 26.837C3.11136 26.9892 3.48103 27.0364 3.83919 26.9719C4.19735 26.9074 4.52616 26.7344 4.77981 26.477C5.03345 26.2197 5.1993 25.8908 5.25425 25.5361C5.35281 24.5596 5.86791 23.6674 6.6731 23.0884C6.71959 23.1617 6.77352 23.2313 6.83116 23.2955C7.81364 24.4143 9.03618 25.304 10.4104 25.9003C11.7846 26.4966 13.2761 26.7846 14.7771 26.7435C15.7672 26.7395 16.7536 26.6239 17.7171 26.3991C26.3455 24.2445 29.689 18.3121 28.8838 6.51695Z" fill="#1F8E52"/>
</svg>
