<svg width="32" height="32" viewBox="0 0 32 32" fill="none" xmlns="http://www.w3.org/2000/svg">
<path d="M8.90909 26C8.26442 26 7.62606 25.8778 7.03046 25.6403C6.43487 25.4029 5.89369 25.0548 5.43784 24.6161C4.98199 24.1773 4.62039 23.6564 4.37368 23.0832C4.12698 22.5099 4 21.8955 4 21.275C4 20.6545 4.12698 20.0401 4.37368 19.4668C4.62039 18.8936 4.98199 18.3727 5.43784 17.9339C5.89369 17.4952 6.43487 17.1471 7.03046 16.9097C7.62606 16.6722 8.26442 16.55 8.90909 16.55C10.2111 16.55 11.4597 17.0478 12.3803 17.9339C13.301 18.82 13.8182 20.0219 13.8182 21.275C13.8182 22.5281 13.301 23.73 12.3803 24.6161C11.4597 25.5022 10.2111 26 8.90909 26ZM8.90909 23.9C9.63241 23.9 10.3261 23.6234 10.8376 23.1312C11.349 22.6389 11.6364 21.9712 11.6364 21.275C11.6364 20.5788 11.349 19.9111 10.8376 19.4188C10.3261 18.9266 9.63241 18.65 8.90909 18.65C8.18577 18.65 7.49208 18.9266 6.98062 19.4188C6.46916 19.9111 6.18182 20.5788 6.18182 21.275C6.18182 21.9712 6.46916 22.6389 6.98062 23.1312C7.49208 23.6234 8.18577 23.9 8.90909 23.9ZM23.0909 26C22.4462 26 21.8079 25.8778 21.2123 25.6403C20.6167 25.4029 20.0755 25.0548 19.6197 24.6161C19.1638 24.1773 18.8022 23.6564 18.5555 23.0832C18.3088 22.5099 18.1818 21.8955 18.1818 21.275C18.1818 20.6545 18.3088 20.0401 18.5555 19.4668C18.8022 18.8936 19.1638 18.3727 19.6197 17.9339C20.0755 17.4952 20.6167 17.1471 21.2123 16.9097C21.8079 16.6722 22.4462 16.55 23.0909 16.55C24.3929 16.55 25.6415 17.0478 26.5622 17.9339C27.4828 18.82 28 20.0219 28 21.275C28 22.5281 27.4828 23.73 26.5622 24.6161C25.6415 25.5022 24.3929 26 23.0909 26ZM23.0909 23.9C23.8142 23.9 24.5079 23.6234 25.0194 23.1312C25.5308 22.6389 25.8182 21.9712 25.8182 21.275C25.8182 20.5788 25.5308 19.9111 25.0194 19.4188C24.5079 18.9266 23.8142 18.65 23.0909 18.65C22.3676 18.65 21.6739 18.9266 21.1624 19.4188C20.651 19.9111 20.3636 20.5788 20.3636 21.275C20.3636 21.9712 20.651 22.6389 21.1624 23.1312C21.6739 23.6234 22.3676 23.9 23.0909 23.9ZM14.9342 14.7703L17.0909 16.55V22.85H14.9091V17.6L11.9429 15.2207C11.679 15.0461 11.4582 14.8177 11.2962 14.5518C11.1343 14.2858 11.0352 13.9888 11.0059 13.6818C10.9767 13.3749 11.018 13.0654 11.1269 12.7756C11.2359 12.4857 11.4098 12.2225 11.6364 12.0046L14.7215 9.03515C14.9241 8.84006 15.1646 8.6853 15.4294 8.57971C15.6942 8.47412 15.978 8.41977 16.2645 8.41977C16.5511 8.41977 16.8349 8.47412 17.0997 8.57971C17.3645 8.6853 17.605 8.84006 17.8076 9.03515L19.3502 10.5199C20.5055 11.6358 22.0041 12.3631 23.6233 12.5936L23.6124 14.7094C21.4154 14.4659 19.3692 13.5128 17.8076 12.0056L14.9342 14.7703ZM20.3636 9.2C19.785 9.2 19.23 8.97875 18.8209 8.58492C18.4117 8.1911 18.1818 7.65695 18.1818 7.1C18.1818 6.54305 18.4117 6.0089 18.8209 5.61508C19.23 5.22125 19.785 5 20.3636 5C20.9423 5 21.4972 5.22125 21.9064 5.61508C22.3156 6.0089 22.5455 6.54305 22.5455 7.1C22.5455 7.65695 22.3156 8.1911 21.9064 8.58492C21.4972 8.97875 20.9423 9.2 20.3636 9.2Z" fill="#1C7C54"/>
</svg>
