<svg width="32" height="32" viewBox="0 0 32 32" fill="none" xmlns="http://www.w3.org/2000/svg">
<path d="M18.6455 7C20.3941 7.06674 20.6223 8.95401 21.6367 9.91895H25.1221C25.6903 9.92066 26.2348 10.1472 26.6367 10.5488C27.0387 10.9506 27.265 11.4953 27.2666 12.0635V23.8555C27.265 24.4236 27.0387 24.9683 26.6367 25.3701C26.2348 25.7718 25.6904 25.9983 25.1221 26H6.8877C6.31921 25.9984 5.77405 25.7719 5.37207 25.3701C4.97016 24.9684 4.7438 24.4236 4.74219 23.8555V12.0635C4.74384 11.4953 4.97013 10.9506 5.37207 10.5488C5.77403 10.1472 6.31931 9.92056 6.8877 9.91895H10.2881C11.2248 9.03244 11.505 7.18653 13.3281 7H18.6455ZM16.0039 12.8555C13.2614 12.8557 11.0383 15.078 11.0381 17.8193C11.0381 20.5609 13.2615 22.7839 16.0039 22.7842C18.747 22.7842 20.9707 20.561 20.9707 17.8193C20.9707 15.0776 18.7468 12.8555 16.0039 12.8555ZM16.0049 14.0674C16.4977 14.0674 16.9861 14.165 17.4414 14.3535C17.8967 14.5421 18.3107 14.8187 18.6592 15.167C19.0076 15.5153 19.284 15.9287 19.4727 16.3838C19.6613 16.8389 19.7587 17.3267 19.7588 17.8193C19.7588 18.3121 19.6613 18.8006 19.4727 19.2559C19.284 19.7109 19.0076 20.1243 18.6592 20.4727C18.3107 20.821 17.8967 21.0976 17.4414 21.2861C16.9861 21.4746 16.4977 21.5722 16.0049 21.5723C15.5119 21.5723 15.0229 21.4747 14.5674 21.2861C14.1121 21.0976 13.6981 20.821 13.3496 20.4727C13.0012 20.1243 12.7247 19.7109 12.5361 19.2559C12.3475 18.8006 12.25 18.3121 12.25 17.8193C12.2501 17.3267 12.3475 16.8389 12.5361 16.3838C12.7247 15.9287 13.0012 15.5153 13.3496 15.167C13.6981 14.8187 14.1121 14.5421 14.5674 14.3535C15.0229 14.165 15.5119 14.0674 16.0049 14.0674ZM8.25586 12.0752C8.11573 12.0783 7.98182 12.1362 7.88379 12.2363C7.78584 12.3364 7.73155 12.4713 7.73145 12.6113C7.73145 12.7514 7.78591 12.8862 7.88379 12.9863C7.98183 13.0865 8.11567 13.1443 8.25586 13.1475H9.86426C9.93568 13.1491 10.0068 13.1366 10.0732 13.1104C10.1397 13.0841 10.2009 13.0451 10.252 12.9951C10.3029 12.9452 10.3434 12.8851 10.3711 12.8193C10.3987 12.7536 10.4131 12.6826 10.4131 12.6113C10.413 12.54 10.3988 12.469 10.3711 12.4033C10.3434 12.3377 10.3028 12.2783 10.252 12.2285C10.2009 12.1786 10.1397 12.1395 10.0732 12.1133C10.0068 12.0871 9.9357 12.0736 9.86426 12.0752H8.25586Z" fill="#D7791F"/>
</svg>
