<svg width="24" height="24" viewBox="0 0 24 24" fill="none" xmlns="http://www.w3.org/2000/svg">
<path d="M23 11.5L19.95 10.37C19.69 9.22 19.04 8.56 19.04 8.56C18.6508 8.17026 18.1887 7.86106 17.6799 7.6501C17.1711 7.43914 16.6258 7.33055 16.075 7.33055C15.5242 7.33055 14.9789 7.43914 14.4701 7.6501C13.9613 7.86106 13.4992 8.17026 13.11 8.56L11.63 10.04L5 3C4 7 5 11 7.45 14.22L2 19.5C2 19.5 10.89 21.5 16.07 17.45C18.83 15.29 19.45 14.03 19.84 12.7L23 11.5ZM17.71 11.72C17.32 12.11 16.68 12.11 16.29 11.72C16.1973 11.6275 16.1237 11.5176 16.0736 11.3966C16.0234 11.2757 15.9976 11.146 15.9976 11.015C15.9976 10.884 16.0234 10.7543 16.0736 10.6334C16.1237 10.5124 16.1973 10.4025 16.29 10.31C16.68 9.92 17.32 9.92 17.71 10.31C18.1 10.7 18.1 11.33 17.71 11.72Z" fill="black"/>
</svg>
