<svg width="24" height="24" viewBox="0 0 24 24" fill="none" xmlns="http://www.w3.org/2000/svg">
<path d="M16.929 4.2771L16.0853 4.28615L16.1049 6.11333C13.9593 6.73607 11.0175 7.03855 8.30147 7.21832C9.94664 11.7316 12.9588 15.3638 15.7005 19.2713C16.6716 18.35 18.0962 17.7721 19.6126 17.5833C18.6376 16.7345 17.8954 16.2724 16.8548 14.2815C18.3206 16.0199 19.3195 16.5534 20.4934 17.1881C20.6464 16.5743 20.9124 16.0332 21.371 15.6565C21.7772 15.3227 22.3097 15.1571 22.9427 15.1716C20.7455 12.3702 18.1769 9.68469 16.9507 6.29183L16.929 4.2771ZM7.65221 4.82437L6.80855 4.8358C6.80855 4.8358 6.82027 5.69549 6.8348 6.56877C6.84211 7.00546 6.85003 7.44547 6.85772 7.78419C6.86053 7.90776 6.86321 7.99888 6.86588 8.09085C5.25441 12.0158 3.62428 15.6374 1.05713 19.0334C2.63377 18.9684 4.16616 18.9771 5.67675 19.0315C6.72033 16.0964 6.7711 12.7102 7.34677 9.56249C7.88194 12.7763 7.84205 16.099 8.91628 19.2108C10.9301 19.3552 12.933 19.5482 14.9796 19.7229C12.37 16.0127 9.43833 12.4556 7.70841 8.03394C7.70607 7.95041 7.70372 7.87476 7.70128 7.76502C7.69369 7.42958 7.68568 6.99051 7.67841 6.55471C7.66388 5.68312 7.65221 4.82437 7.65221 4.82437Z" fill="black"/>
</svg>
