<svg width="24" height="24" viewBox="0 0 24 24" fill="none" xmlns="http://www.w3.org/2000/svg">
<path d="M5 13C5.79113 13 6.56448 13.2346 7.22228 13.6741C7.88008 14.1136 8.39277 14.7384 8.69552 15.4693C8.99827 16.2002 9.07748 17.0044 8.92314 17.7804C8.7688 18.5563 8.38784 19.269 7.82843 19.8284C7.26902 20.3878 6.55629 20.7688 5.78036 20.9231C5.00444 21.0775 4.20017 20.9983 3.46927 20.6955C2.73836 20.3928 2.11365 19.8801 1.67412 19.2223C1.2346 18.5645 1 17.7911 1 17L1.005 16.8C1.05631 15.775 1.4996 14.809 2.24319 14.1017C2.98677 13.3944 3.97376 13 5 13ZM19 13C19.7911 13 20.5645 13.2346 21.2223 13.6741C21.8801 14.1136 22.3928 14.7384 22.6955 15.4693C22.9983 16.2002 23.0775 17.0044 22.9231 17.7804C22.7688 18.5563 22.3878 19.269 21.8284 19.8284C21.269 20.3878 20.5563 20.7688 19.7804 20.9231C19.0044 21.0775 18.2002 20.9983 17.4693 20.6955C16.7384 20.3928 16.1136 19.8801 15.6741 19.2223C15.2346 18.5645 15 17.7911 15 17L15.005 16.8C15.0563 15.775 15.4996 14.809 16.2432 14.1017C16.9868 13.3944 17.9738 13 19 13Z" fill="black"/>
<path d="M14.8319 6.445L16.5349 9H18.9999C19.2448 9.00003 19.4812 9.08996 19.6642 9.25272C19.8473 9.41547 19.9642 9.63975 19.9929 9.883L19.9999 10C19.9999 10.2652 19.8945 10.5196 19.707 10.7071C19.5194 10.8946 19.2651 11 18.9999 11H15.9999C15.8353 11 15.6732 10.9594 15.5281 10.8818C15.3829 10.8042 15.2592 10.6919 15.1679 10.555L13.7719 8.462L10.4969 11.082L12.7069 13.292C12.8625 13.4478 12.9623 13.6506 12.9909 13.869L12.9999 14V18C12.9999 18.2652 12.8945 18.5196 12.707 18.7071C12.5194 18.8946 12.2651 19 11.9999 19C11.7346 19 11.4803 18.8946 11.2927 18.7071C11.1052 18.5196 10.9999 18.2652 10.9999 18V14.415L8.29285 11.707C8.10739 11.5213 8.00238 11.27 8.00051 11.0075C7.99864 10.7451 8.10005 10.4924 8.28285 10.304L8.37485 10.219L13.3749 6.219C13.4831 6.13235 13.6082 6.06916 13.7421 6.03344C13.8761 5.99771 14.0161 5.99024 14.1531 6.01149C14.2901 6.03275 14.4212 6.08226 14.538 6.15689C14.6549 6.23152 14.7549 6.32963 14.8319 6.445ZM16.9999 2C17.3954 2 17.7821 2.1173 18.111 2.33706C18.4399 2.55682 18.6962 2.86918 18.8476 3.23463C18.999 3.60009 19.0386 4.00222 18.9614 4.39018C18.8843 4.77814 18.6938 5.13451 18.4141 5.41421C18.1344 5.69392 17.778 5.8844 17.39 5.96157C17.0021 6.03874 16.5999 5.99913 16.2345 5.84776C15.869 5.69638 15.5567 5.44004 15.3369 5.11114C15.1172 4.78224 14.9999 4.39556 14.9999 4L15.0049 3.85C15.0427 3.34684 15.2693 2.87659 15.6393 2.5335C16.0093 2.19041 16.4953 1.99984 16.9999 2Z" fill="black"/>
</svg>
