<svg width="24" height="24" viewBox="0 0 24 24" fill="none" xmlns="http://www.w3.org/2000/svg">
<path d="M15.7242 11.25C15.7236 9.47174 16.194 7.72505 17.0873 6.1875L17.4445 5.56594C16.6958 5.38775 15.9329 5.2756 15.1645 5.23078C14.1361 4.43859 12.6033 3.49875 10.8361 3.19969L9.75 3L10.3767 5.89969C8.42344 6.5625 6.70031 7.90875 5.55984 8.835C5.33922 8.65031 5.10828 8.46984 4.86703 8.29359C3.00563 6.93422 0.995156 6.80297 0.910781 6.79828L0 6.75L0.125156 7.65516C0.13875 7.74891 0.443437 9.75188 1.60875 11.242C0.443437 12.7327 0.140625 14.7342 0.125156 14.8294L0 15.75L0.910781 15.6863C0.995156 15.6816 3.00563 15.5508 4.86703 14.1909C5.10391 14.0181 5.33141 13.8405 5.54953 13.658C6.69188 14.5875 8.41547 15.9361 10.3711 16.5989L9.75 19.5L10.8361 19.3022C12.5934 19.005 14.1211 18.0647 15.1486 17.2716C15.9277 17.2265 16.7013 17.1131 17.4605 16.9327L17.0897 16.3148C16.1952 14.7768 15.7241 13.0292 15.7242 11.25Z" fill="black"/>
<path d="M23.4182 10.3945C23.144 9.93135 22.6429 9.22729 21.8155 8.50635C20.9543 7.76462 19.971 7.17781 18.9093 6.77197L18.3857 7.68744C17.6256 8.99629 17.2249 10.4828 17.2241 11.9963C17.2234 13.5099 17.6226 14.9968 18.3815 16.3063L18.9322 17.2237C19.9829 16.8227 20.9567 16.2442 21.8113 15.5132C23.2991 14.2251 23.9999 12.6093 23.9999 11.9999C23.9999 11.4229 23.6249 10.7465 23.4182 10.3945ZM19.4999 11.9999C19.3516 11.9999 19.2066 11.956 19.0832 11.8735C18.9599 11.7911 18.8638 11.674 18.807 11.537C18.7502 11.3999 18.7354 11.2491 18.7643 11.1036C18.7932 10.9581 18.8647 10.8245 18.9696 10.7196C19.0745 10.6147 19.2081 10.5433 19.3536 10.5144C19.4991 10.4854 19.6499 10.5003 19.7869 10.557C19.924 10.6138 20.0411 10.7099 20.1235 10.8333C20.2059 10.9566 20.2499 11.1016 20.2499 11.2499C20.2499 11.4489 20.1709 11.6396 20.0302 11.7803C19.8896 11.9209 19.6988 11.9999 19.4999 11.9999Z" fill="black"/>
</svg>
