<svg width="24" height="24" viewBox="0 0 24 24" fill="none" xmlns="http://www.w3.org/2000/svg">
<path d="M16.9709 4.78828C17.6482 4.79063 18.2201 4.55625 18.6889 4.08516C19.1576 3.61406 19.392 3.03984 19.392 2.36719C19.392 1.69219 19.1576 1.12734 18.6889 0.677344C18.2201 0.225 17.6482 0 16.9709 0C16.2959 0.00234375 15.7217 0.227344 15.2529 0.675C14.7842 1.125 14.5498 1.68984 14.5498 2.36484C14.5498 3.03984 14.7842 3.61406 15.2529 4.08281C15.7217 4.55391 16.2959 4.78828 16.9709 4.78828ZM6.15684 4.78828C6.83184 4.79063 7.40606 4.55625 7.87481 4.08516C8.34356 3.61406 8.57793 3.03984 8.57793 2.36719C8.57793 1.69219 8.34356 1.12734 7.87481 0.677344C7.40606 0.225 6.83184 0 6.15684 0C5.48184 0 4.90762 0.225 4.43887 0.675C3.97012 1.125 3.73574 1.68984 3.73574 2.36484C3.73574 3.03984 3.97012 3.61406 4.43887 4.08281C4.90762 4.55391 5.47949 4.78828 6.15684 4.78828ZM22.0264 15.7289L19.3381 7.66172C18.9256 6.53437 18.1545 5.97188 17.0271 5.97188H16.9147C15.7873 5.97188 15.0186 6.53437 14.6037 7.66172L11.9154 15.7289C11.742 16.2492 12.1287 16.7883 12.6795 16.7883H15.1686V23.1539C15.1686 23.6227 15.5482 24 16.0146 24H17.9272C18.3959 24 18.7732 23.6203 18.7732 23.1539V16.7883H21.2623C21.8131 16.7883 22.2022 16.2492 22.0264 15.7289ZM7.95918 5.97188H4.35215C3.71465 5.97188 3.1498 6.21563 2.6623 6.70547C2.1748 7.19297 1.92871 7.75781 1.92871 8.39531V14.1352C1.92871 14.6039 2.3084 14.9859 2.77949 14.9859H3.73105V23.1586C3.73105 23.625 4.1084 24 4.57246 24H7.73184C8.19824 24 8.57324 23.6227 8.57324 23.1586V14.9859H9.5248C9.99355 14.9859 10.3756 14.6062 10.3756 14.1352V8.39531C10.3756 7.75781 10.1318 7.19297 9.64199 6.70547C9.16152 6.21563 8.59668 5.97188 7.95918 5.97188Z" fill="black"/>
</svg>
