<?xml version="1.0" standalone="no"?><!DOCTYPE svg PUBLIC "-//W3C//DTD SVG 1.1//EN" "http://www.w3.org/Graphics/SVG/1.1/DTD/svg11.dtd"><svg t="1760092768282" class="icon" viewBox="0 0 1024 1024" version="1.1" xmlns="http://www.w3.org/2000/svg" p-id="21072" xmlns:xlink="http://www.w3.org/1999/xlink" width="24" height="24"><path d="M821.192 975.992 821.192 245.254l39.496 0 0 730.738L821.192 975.992 821.192 975.992zM542.126 388.242l-36.928 153.258 243.116 434.492L635.84 975.992l-170.146-296.246-59.248 296.246-118.498 0c0 0 113.658-608.586 123.042-663.588 7.108-41.968 23.402-56.878 56.188-56.878 0 0 9.38 0 37.422 0 28.15 0 35.946 17.378 56.192 37.918 20.34 20.54 56.188 56.88 56.188 56.88l164.71-45.82 0 79c0 0-135.976 53.126-164.614 61.618C598.512 450.648 542.126 388.242 542.126 388.242L542.126 388.242zM542.126 217.604c-51.744 0-93.712-42.46-93.712-94.798 0-52.336 41.968-94.798 93.712-94.798 51.746 0 93.714 42.462 93.714 94.798C635.84 175.144 593.872 217.604 542.126 217.604L542.126 217.604zM380.772 257.104c-12.836 58.854-34.462 186.534-46.61 248.646-5.234 26.664-20.44 35.75-41.278 35.75-34.66 0-87.982 0-124.026 0-25.28 0-36.932-10.864-31.7-35.848 16.49-78.7 52.04-260.398 52.04-260.398s7.01-19.75 39.498-19.75c0 0 76.236 0 122.844 0C367.54 225.504 386.202 232.218 380.772 257.104L380.772 257.104z" fill="#272536" p-id="21073"></path></svg>