<svg xmlns="http://www.w3.org/2000/svg" height="24" viewBox="0 -960 960 960" width="24" fill="currentColor"><path d="M680-480q-17 0-28.5-11.5T640-520q0-17 11.5-28.5T680-560q17 0 28.5 11.5T720-520q0 17-11.5 28.5T680-480Zm0 280L480-80 320-200H80v-240h120v-127q-36-14-58-44.5T120-680v-120h200v120q0 38-22 68.5T240-567v127h153l175-280h272v206q0 77-35.5 140T709-258l-29 58ZM200-760v40q0 17 11.5 28.5T240-680q17 0 28.5-11.5T280-720v-40h-80Zm366 478 74-148q39-30 59.5-75t20.5-95v-40H627L486-400H240v120h98l142 98Z"/></svg>
