<svg xmlns="http://www.w3.org/2000/svg" height="24" viewBox="0 -960 960 960" width="24" fill="currentColor"><path d="M200-160q-50 0-85-35t-35-85q0-50 35-85t85-35q35 0 63 18.5t43 49.5h64l-68-192h-82v-80h160v80h-44l18 50h202l-36-102q-10-27 3-51.5t42-34.5q27-10 51.5 3t34.5 42l116 324q8 23-3.5 43.5T724-220q-23 8-43.5-3.5T656-266l-26-74H400l-32 90q15 31 43 49.5t63 18.5q50 0 85 35t35 85q0 50-35 85t-85 35q-50 0-85-35t-35-85q0-11 2-20.5t6-18.5h92l22-62H306q-15 31-43 49.5T200-160Zm0-80q17 0 28.5-11.5T240-280q0-17-11.5-28.5T200-320q-17 0-28.5 11.5T160-280q0 17 11.5 28.5T200-240Zm560 0q17 0 28.5-11.5T800-280q0-17-11.5-28.5T760-320q-17 0-28.5 11.5T720-280q0 17 11.5 28.5T760-240Zm-196-280h130l-76-212-54 152v60Z"/></svg>
