<svg xmlns="http://www.w3.org/2000/svg" height="24" viewBox="0 -960 960 960" width="24" fill="currentColor"><path d="m440-120-56-56 63-64q-127-5-216.5-94.5T136-551q-1-8 4.5-13.5T154-570q8 0 13.5 5.5T174-551q5 103 79 177t177 79v-165q-36-11-58-41.5T350-570q0-46 32-78t78-32q46 0 78 32t32 78q0 38-22 68.5T490-460v165q103-5 177-79t79-177q1-8 6.5-13.5T766-570q8 0 13.5 5.5T784-551q-5 127-94.5 216.5T473-240l63 64-56 56Zm20-380q13 0 21.5-8.5T490-530q0-13-8.5-21.5T460-560q-13 0-21.5 8.5T430-530q0 13 8.5 21.5T460-500Zm0-30Z"/></svg>
