<svg xmlns="http://www.w3.org/2000/svg" height="24" viewBox="0 -960 960 960" width="24" fill="currentColor"><path d="M40-160v-80l96-38q59-23 121.5-23t121.5 23l120 48 120-48q59-23 121.5-23t121.5 23l96 38v80l-96-38q-59-23-121.5-23T619-198l-120 48-120-48q-59-23-121.5-23T136-198L40-160Zm0-160v-80l96-38q59-23 121.5-23t121.5 23l120 48 120-48q59-23 121.5-23t121.5 23l96 38v80l-96-38q-59-23-121.5-23T619-358l-120 48-120-48q-59-23-121.5-23T136-358L40-320Zm440-120q-33 0-56.5-23.5T400-520v-240q0-33 23.5-56.5T480-840q33 0 56.5 23.5T560-760v240q0 33-23.5 56.5T480-440Z"/></svg>
