<svg xmlns="http://www.w3.org/2000/svg" height="24" viewBox="0 -960 960 960" width="24" fill="currentColor"><path d="M280-80v-240h-40q-33 0-56.5-23.5T160-400v-200q0-50 35-85t85-35q50 0 85 35t35 85v200q0 33-23.5 56.5T320-320h-40v240h-80Zm0-640q-33 0-56.5-23.5T200-800q0-33 23.5-56.5T280-880q33 0 56.5 23.5T360-800q0 33-23.5 56.5T280-720Zm400 640v-480h-80q-17 0-28.5-11.5T560-600v-80q0-66 47-113t113-47q66 0 113 47t47 113v80q0 17-11.5 28.5T840-560h-80v480h-80Zm0-640q-33 0-56.5-23.5T600-800q0-33 23.5-56.5T680-880q33 0 56.5 23.5T760-800q0 33-23.5 56.5T680-720Z"/></svg>
