<svg width="54" height="54" viewBox="0 0 54 54" fill="none" xmlns="http://www.w3.org/2000/svg">
<path d="M54 49C52.3404 49 51.1666 49.2717 50.2539 49.6377C49.3262 50.0097 48.5816 50.5113 47.7598 51.1133C46.1079 52.3233 44.1285 54 40.5 54C36.9592 54 34.5795 52.4197 32.6631 51.1787C30.7187 49.9197 29.2374 49 27 49C24.7626 49 23.2813 49.9197 21.3369 51.1787C19.4205 52.4197 17.0408 54 13.5 54C9.87152 54 7.89206 52.3233 6.24023 51.1133C5.4184 50.5113 4.67383 50.0097 3.74609 49.6377C2.83337 49.2717 1.65957 49 0 49V45C2.12529 45 3.80909 45.3534 5.23438 45.9248C6.64466 46.4903 7.71892 47.2387 8.60352 47.8867C10.3646 49.1767 11.3502 50 13.5 50C15.7374 50 17.2187 49.0803 19.1631 47.8213C21.0795 46.5803 23.4592 45 27 45C30.5408 45 32.9205 46.5803 34.8369 47.8213C36.7813 49.0803 38.2626 50 40.5 50C42.6498 50 43.6354 49.1767 45.3965 47.8867C46.2811 47.2387 47.3553 46.4903 48.7656 45.9248C50.1909 45.3534 51.8747 45 54 45V49ZM54 40C52.3404 40 51.1666 40.2717 50.2539 40.6377C49.3262 41.0097 48.5816 41.5113 47.7598 42.1133C46.1079 43.3233 44.1285 45 40.5 45C36.9592 45 34.5795 43.4197 32.6631 42.1787C30.7187 40.9197 29.2374 40 27 40C24.7626 40 23.2813 40.9197 21.3369 42.1787C19.4205 43.4197 17.0408 45 13.5 45C9.87152 45 7.89206 43.3233 6.24023 42.1133C5.4184 41.5113 4.67383 41.0097 3.74609 40.6377C2.83337 40.2717 1.65957 40 0 40V36C2.12529 36 3.80909 36.3534 5.23438 36.9248C6.64466 37.4903 7.71892 38.2387 8.60352 38.8867C10.3646 40.1767 11.3502 41 13.5 41C15.7374 41 17.2187 40.0803 19.1631 38.8213C21.0795 37.5803 23.4592 36 27 36C30.5408 36 32.9205 37.5803 34.8369 38.8213C36.7813 40.0803 38.2626 41 40.5 41C42.6498 41 43.6354 40.1767 45.3965 38.8867C46.2811 38.2387 47.3553 37.4903 48.7656 36.9248C50.1909 36.3534 51.8747 36 54 36V40ZM54 31C52.3404 31 51.1666 31.2717 50.2539 31.6377C49.3262 32.0097 48.5816 32.5113 47.7598 33.1133C46.1079 34.3233 44.1285 36 40.5 36C36.9592 36 34.5795 34.4197 32.6631 33.1787C30.7187 31.9197 29.2374 31 27 31C24.7626 31 23.2813 31.9197 21.3369 33.1787C19.4205 34.4197 17.0408 36 13.5 36C9.87152 36 7.89206 34.3233 6.24023 33.1133C5.4184 32.5113 4.67383 32.0097 3.74609 31.6377C2.83337 31.2717 1.65957 31 0 31V27C2.12529 27 3.80909 27.3534 5.23438 27.9248C6.64466 28.4903 7.71892 29.2387 8.60352 29.8867C10.3646 31.1767 11.3502 32 13.5 32C15.7374 32 17.2187 31.0803 19.1631 29.8213C21.0795 28.5803 23.4592 27 27 27C30.5408 27 32.9205 28.5803 34.8369 29.8213C36.7813 31.0803 38.2626 32 40.5 32C42.6498 32 43.6354 31.1767 45.3965 29.8867C46.2811 29.2387 47.3553 28.4903 48.7656 27.9248C50.1909 27.3534 51.8747 27 54 27V31ZM27 10C36.3888 10 44 17.6112 44 27C44 27.3037 43.9903 27.6055 43.9746 27.9053C42.9424 28.5928 42.0084 29 40.5 29C40.2766 29 40.0611 28.9875 39.8516 28.9697C39.9492 28.3274 40 27.6696 40 27C40 19.8203 34.1797 14 27 14C19.8203 14 14 19.8203 14 27C14 27.6696 14.0509 28.3273 14.1484 28.9697C13.9389 28.9875 13.7234 29 13.5 29C11.9915 29 11.0567 28.5938 10.0244 27.9062C10.0086 27.6062 10 27.304 10 27C10 17.6112 17.6112 10 27 10ZM27.4121 20.0107C31.2613 20.2061 34.3903 23.1222 34.9189 26.874C34.8917 26.8564 34.8643 26.839 34.8369 26.8213C32.9205 25.5803 30.5408 24 27 24C23.4592 24 21.0795 25.5803 19.1631 26.8213C19.1352 26.8393 19.1068 26.8561 19.0791 26.874C19.6264 22.9889 22.9639 20 27 20L27.4121 20.0107ZM27 0C40.8979 0 52.341 10.5008 53.833 24.001C52.3039 24.0144 51.0056 24.2124 49.8682 24.5439C48.6422 12.9963 38.8728 4 27 4C15.1272 4 5.35676 12.9963 4.13086 24.5439C2.99361 24.2125 1.69575 24.0144 0.166992 24.001C1.659 10.5008 13.1021 0 27 0Z" fill="#1FE36E"/>
</svg>
